<?xml version="1.0" encoding="UTF-8" standalone="no"?>
<!-- Created with Inkscape (http://www.inkscape.org/) -->

<svg
   width="112.32582mm"
   height="103.8792mm"
   viewBox="0 0 112.32582 103.8792"
   version="1.1"
   id="svg5"
   xml:space="preserve"
   xmlns="http://www.w3.org/2000/svg"
   xmlns:svg="http://www.w3.org/2000/svg"><defs
     id="defs2" /><g
     id="layer1"
     transform="translate(-41.469422,-38.631884)"><path
       style="fill:#000000;stroke:#000000;stroke-width:1;stroke-linecap:round;stroke-linejoin:round;paint-order:fill markers stroke"
       d="m 71.574323,39.131755 c 0,0 -8.361487,8.528717 -10.535473,12.458616 -2.173986,3.929898 -5.184121,9.197636 -6.020271,15.050677 -0.836146,5.853038 -1.839526,11.03716 0.16723,19.231416 2.006759,8.194257 8.445103,15.385136 12.793075,17.977196 4.347972,2.59206 9.11402,5.26774 15.886824,4.59882 6.772804,-0.66892 10.368243,-3.59544 12.876689,-6.10389 2.508446,-2.508441 5.602193,-6.103883 5.853043,-9.782935 0.25084,-3.679055 0.50169,-7.02365 -2.675678,-12.709459 -3.177365,-5.685811 -12.040539,-9.866556 -18.22804,-9.197636 -6.1875,0.66892 6.881186,-4.247449 13.68052,-4.661321 6.799328,-0.413872 16.432628,0.670315 23.778938,5.728026 4.05479,2.791598 4.41906,3.022476 7.06103,6.811828 2.58327,3.705162 3.98773,6.417198 4.47782,9.847817 0.83615,5.853041 3.01014,19.98395 -11.95692,31.35557 -14.96706,11.37163 -37.37761,10.10122 -54.582879,2.53327 -13.019201,-5.72666 0.366147,2.57033 11.859743,7.15687 3.695541,1.47472 8.016389,2.50276 10.232584,2.61601 7.140244,0.36489 32.825012,5.67105 58.494772,-15.48351 8.32242,-6.85854 8.5818,-11.57327 8.55658,-11.07937 -0.28538,5.58944 -2.94188,9.94931 -4.786,12.64422 -1.38169,2.01914 -2.30732,2.99216 -2.30732,2.99216 0,0 -23.57609,30.47944 -66.027581,17.82677 C 37.721518,126.29022 42.096742,82.419745 42.096742,82.419745 c 0,0 0,21.403115 19.274631,33.582795 19.274631,12.17967 42.569737,8.1592 54.276417,-5.08472 11.70668,-13.24392 5.08472,-26.133089 4.61172,-28.02508 -0.473,-1.891988 -3.66572,-4.670845 -3.66572,-4.670845 0,0 15.30221,25.297905 -16.803286,39.136315 -12.999642,5.60322 -26.69698,1.50172 -36.050617,-4.28819 -6.809467,-4.21507 -10.909479,-9.72207 -12.260068,-11.43982 -6.585821,-8.376239 -7.35592,-16.936567 -7.831491,-22.151323 -0.221732,-2.431343 0.49597,-9.200076 3.335159,-15.659166 1.709107,-3.888177 4.47835,-7.709987 7.564064,-11.074591 8.564753,-9.338843 17.026772,-13.613365 17.026772,-13.613365 z"
       id="path910" /><path
       style="fill:#000000;stroke:#000000;stroke-width:1;stroke-linecap:round;stroke-linejoin:round;paint-order:fill markers stroke"
       d="m 84.134358,103.58636 c 0,0 -4.450524,-0.28116 -7.823368,-2.81816 -2.112347,-1.588881 -6.136338,-5.144128 -7.241529,-6.771402 -1.217807,-1.793088 -2.455578,-3.225883 -3.226451,-8.893734 -0.180504,-1.327154 -0.24889,-3.714311 -0.05164,-5.655128 0.32202,-3.168406 2.081075,-7.007365 4.483935,-9.793086 2.579997,-2.99108 5.740872,-5.263841 6.8764,-6.034998 3.635185,-2.468718 9.482624,-4.335265 15.673971,-4.790839 6.249895,-0.459882 13.259584,-0.37247 19.474754,1.731934 3.131,1.060131 6.23721,2.624553 9.24793,4.608267 3.60611,2.376006 7.18507,7.09986 8.76234,9.268705 2.46559,3.390348 6.554,15.112673 6.32634,20.102376 -0.24276,5.320551 -1.90698,12.556355 -6.79934,19.215505 -0.79593,1.08336 -2.93476,3.73759 -4.92039,5.61889 -2.4587,2.3295 -4.84014,3.88378 -6.01767,4.6688 -2.12848,1.41899 -6.79933,3.78398 -6.79933,3.78398 0,0 16.3184,-3.37011 24.35935,-12.88917 5.75357,-6.81121 9.58566,-10.27673 12.37478,-18.312003 1.10884,-3.194494 2.13313,-6.525963 2.82026,-12.314565 2.18073,-18.371073 -10.17723,-32.471979 -18.15127,-36.9571 -3.05044,-1.715768 -6.42529,-3.042765 -9.9859,-4.170614 -5.46819,-1.732089 -11.65533,-2.265613 -19.10342,-1.442024 -12.29793,1.359869 -21.698745,5.380342 -29.325825,12.061426 -7.627078,6.681083 -12.770922,15.076783 -14.01254,26.014841 -1.241615,10.938057 6.976708,17.619141 9.04607,19.392881 2.069364,1.773738 7.745328,3.843098 9.519068,4.079598 1.773737,0.2365 4.493471,0.29562 4.493471,0.29562 z"
       id="path1008" /></g></svg>
